<?xml version="1.0" encoding="UTF-8" standalone="no"?>
<!-- Created with Inkscape (http://www.inkscape.org/) -->

<svg
   width="237.09935mm"
   height="60.324303mm"
   viewBox="0 0 237.09935 60.324304"
   version="1.1"
   id="svg1"
   inkscape:version="1.4.2 (f4327f4, 2025-05-13)"
   sodipodi:docname="logo.svg"
   xmlns:inkscape="http://www.inkscape.org/namespaces/inkscape"
   xmlns:sodipodi="http://sodipodi.sourceforge.net/DTD/sodipodi-0.dtd"
   xmlns="http://www.w3.org/2000/svg"
   xmlns:svg="http://www.w3.org/2000/svg">
  <sodipodi:namedview
     id="namedview1"
     pagecolor="#595959"
     bordercolor="#000000"
     borderopacity="0.25"
     inkscape:showpageshadow="2"
     inkscape:pageopacity="0.0"
     inkscape:pagecheckerboard="0"
     inkscape:deskcolor="#d1d1d1"
     inkscape:document-units="mm"
     inkscape:zoom="0.46299721"
     inkscape:cx="360.69332"
     inkscape:cy="-139.30969"
     inkscape:window-width="1920"
     inkscape:window-height="974"
     inkscape:window-x="-11"
     inkscape:window-y="-11"
     inkscape:window-maximized="1"
     inkscape:current-layer="layer1" />
  <defs
     id="defs1" />
  <g
     inkscape:label="Layer 1"
     inkscape:groupmode="layer"
     id="layer1"
     transform="translate(-18.715239,-16.881935)">
    <path
       d="m 36.373211,75.713955 h -7.186384 q -1.16351,-1.391649 -1.16351,-7.893615 v -0.04563 l 0.04563,-1.961996 q 0.06844,-4.083691 0.06844,-4.174947 0,-1.665416 -2.235764,-1.665416 V 75.668327 H 18.715239 V 42.953171 h 8.874614 q 3.034251,0 5.270014,1.391649 2.258578,1.391649 2.258578,4.403086 V 52.6719 q 0,3.809924 -4.448714,5.155945 4.471528,1.04944 4.471528,5.406898 l -0.11407,3.581785 q 0,7.847987 1.346022,8.897427 z M 28.137387,54.268874 V 48.88479 q 0,-1.711044 -2.235764,-1.711044 v 8.828986 q 2.235764,0 2.235764,-1.733858 z m 24.342448,21.399453 h -6.479152 v -0.889742 q -1.254766,1.254765 -4.01525,1.254765 -1.916369,0 -3.330831,-1.003812 -1.391649,-1.026627 -1.391649,-2.669229 V 49.181371 h 6.479152 v 21.536337 q 0,1.209137 1.140696,1.209137 1.117882,0 1.117882,-1.16351 V 49.181371 h 6.479152 z M 53.8943,65.014228 h 6.479153 v 5.612224 q 0,1.346021 1.095068,1.346021 1.095068,0 1.095068,-2.577973 0,-3.353645 -1.346022,-4.334644 -5.087503,-2.669228 -6.136943,-3.718668 -1.04944,-1.072254 -1.04944,-3.193948 v -3.558971 q 0,-5.58941 7.57422,-5.58941 7.368895,0 7.368895,5.361271 v 5.224386 H 62.63203 l 0.136884,-3.171134 q 0,-3.308018 -1.209138,-3.308018 -1.209137,0 -1.209137,2.076067 0,2.144508 0.52472,3.239576 0.547534,1.095068 5.977246,3.764296 2.258577,1.619788 2.258577,4.289016 v 3.969622 q 0,5.589409 -7.688289,5.589409 -7.528593,0 -7.528593,-5.36127 z m 16.540085,0 h 6.479152 v 5.612224 q 0,1.346021 1.095068,1.346021 1.095068,0 1.095068,-2.577973 0,-3.353645 -1.346021,-4.334644 -5.087503,-2.669228 -6.136943,-3.718668 -1.04944,-1.072254 -1.04944,-3.193948 v -3.558971 q 0,-5.58941 7.57422,-5.58941 7.368895,0 7.368895,5.361271 v 5.224386 h -6.342269 l 0.136884,-3.171134 q 0,-3.308018 -1.209138,-3.308018 -1.209138,0 -1.209138,2.076067 0,2.144508 0.524721,3.239576 0.547534,1.095068 5.977246,3.764296 2.258577,1.619788 2.258577,4.289016 v 3.969622 q 0,5.589409 -7.688289,5.589409 -7.528593,0 -7.528593,-5.36127 z m 31.779785,-0.570347 h -8.737726 v 6.182571 q 0,1.346021 1.140696,1.346021 1.117881,0 1.117881,-1.346021 v -5.338457 h 6.479149 v 5.384085 q 0,5.36127 -7.642658,5.36127 -7.57422,0 -7.57422,-5.589409 V 54.588269 q 0,-5.58941 7.57422,-5.58941 7.642658,0 7.642658,5.361271 z m -6.479149,-3.969622 v -6.068502 q 0,-1.300393 -1.117881,-1.300393 -1.140696,0 -1.140696,1.300393 v 6.068502 z m 26.099119,15.194068 h -7.64266 l -3.99244,-9.581844 v 9.581844 h -6.47915 V 42.953171 h 6.47915 V 57.62252 l 3.33083,-8.441149 h 6.73011 L 115.5375,60.77084 Z m 16.22069,0 h -6.50196 v -21.26257 q 0,-1.209137 -1.11788,-1.209137 -1.11789,0 -1.11789,1.16351 v 21.308197 h -6.50196 V 49.181371 h 6.50196 v 0.889742 q 1.3004,-1.072254 4.01525,-1.072254 1.75667,0 3.23958,0.958185 1.4829,0.958184 1.4829,2.806111 z m 16.60854,0 h -6.47915 v -0.889742 q -1.25477,1.254765 -4.01525,1.254765 -1.91637,0 -3.33084,-1.003812 -1.39164,-1.026627 -1.39164,-2.669229 V 49.181371 h 6.47915 v 21.536337 q 0,1.209137 1.14069,1.209137 1.11789,0 1.11789,-1.16351 V 49.181371 h 6.47915 z m 14.30433,0 h -4.10651 q -4.40309,0 -5.27001,-1.323207 -0.86693,-1.323207 -0.86693,-5.087503 V 53.105364 h -2.89737 v -3.923993 h 2.89737 v -5.338457 h 6.50196 v 5.338457 h 3.51335 v 3.923993 h -3.51335 v 16.106625 q 0,1.16351 0.68442,1.57416 0.70723,0.387837 3.05707,0.387837 z m 16.44883,-11.224446 h -8.73773 v 6.182571 q 0,1.346021 1.14069,1.346021 1.11789,0 1.11789,-1.346021 v -5.338457 h 6.47915 v 5.384085 q 0,5.36127 -7.64266,5.36127 -7.57422,0 -7.57422,-5.589409 V 54.588269 q 0,-5.58941 7.57422,-5.58941 7.64266,0 7.64266,5.361271 z m -6.47915,-3.969622 v -6.068502 q 0,-1.300393 -1.11789,-1.300393 -1.14069,0 -1.14069,1.300393 v 6.068502 z m 23.33863,-0.319395 h -6.50197 v -5.749107 q 0,-1.209137 -1.11788,-1.209137 -1.11788,0 -1.11788,1.16351 v 21.308197 h -6.50197 V 49.181371 h 6.50197 v 0.889742 q 1.30039,-1.072254 4.01525,-1.072254 1.93918,0 3.33083,1.04944 1.39165,1.026627 1.39165,2.714856 z"
       id="text1"
       style="font-size:46.7229px;line-height:1.15;font-family:Haettenschweiler;-inkscape-font-specification:Haettenschweiler;letter-spacing:0px;word-spacing:0px;white-space:pre;fill:#ffffff;stroke-width:7.23365;stroke-linecap:square;stroke-miterlimit:6.7;stroke-dasharray:7.23365, 21.7009"
       aria-label="Russeknuter" />
    <path
       id="path2572"
       style="opacity:0.999575;fill:#ffffff;fill-opacity:1;fill-rule:nonzero;stroke:none;stroke-width:1.50196;stroke-linecap:round;stroke-linejoin:round;stroke-miterlimit:6.7;stroke-dasharray:none;paint-order:markers stroke fill"
       d="m 192.4141,16.882174 c -0.90397,0.0046 -1.92662,0.08265 -3.0701,0.234094 -2.21915,0.293893 -4.84408,0.858595 -7.8171,1.65933 -0.35252,0.09494 -0.70925,0.192867 -1.07021,0.294039 -2.60328,0.72689 -4.93946,1.642923 -6.96547,2.611727 -0.52041,0.248852 -1.06751,0.526667 -1.61231,0.821138 -1.24372,0.672244 -2.22289,1.291558 -2.80138,1.713074 -0.18577,0.135367 -0.31851,0.241725 -0.41186,0.324528 -2.5753,2.032717 -3.23356,2.60381 -4.63382,4.185791 -0.52005,0.587534 -0.96324,1.211977 -1.37666,1.85105 -0.35912,-0.07523 -0.77123,-0.142261 -1.1219,-0.126091 -0.79353,0.03662 -1.75788,0.378201 -2.56418,0.648023 -0.7551,0.252689 -1.44422,0.59251 -2.13786,0.899687 -0.66823,0.29592 -1.6265,0.756646 -1.95181,0.907955 0.35813,-0.02135 1.4201,-0.07121 2.1487,-0.128158 0.75631,-0.05912 1.52439,-0.08751 2.3089,-0.223759 0.79955,-0.138866 1.75661,-0.288477 2.46445,-0.601514 -0.3302,0.541539 -0.66312,1.081667 -1.02629,1.607137 -0.17713,0.256301 -0.34463,0.505477 -0.50281,0.747242 -0.35086,0.536261 -0.68772,1.103617 -0.97979,1.652612 -0.55622,1.045508 -0.79569,1.73031 -0.92604,2.128552 0.23335,-0.345679 0.66793,-0.918062 1.4149,-1.797306 0.4146,-0.488021 0.7993,-0.924682 1.23352,-1.421619 0.18656,-0.213508 0.38094,-0.434259 0.58446,-0.663008 0.62976,-0.70789 1.21553,-1.383213 1.77767,-2.075843 -0.0654,0.350193 -0.11784,0.732833 -0.10594,1.066602 0.0308,0.867132 0.36899,1.963236 0.63459,2.819466 0.2325,0.749539 0.53838,1.338766 0.82217,2.056722 0.31103,0.78687 0.80697,2.064438 0.96842,2.477368 -0.0311,-0.442272 -0.13043,-1.80934 -0.18656,-2.653585 -0.0512,-0.770303 -0.0274,-1.433331 -0.13849,-2.210201 -0.12691,-0.887448 -0.29091,-2.022746 -0.63459,-2.819466 -0.20341,-0.471536 -0.59387,-0.982729 -0.87591,-1.345137 0.54019,-0.693936 1.06357,-1.41832 1.58905,-2.22002 0.81962,-1.250447 1.06472,-1.574728 1.86449,-2.596224 0.38196,-0.487856 2.6939,-2.422509 4.23488,-3.062345 3.3e-4,-1.36e-4 7.1e-4,-3.82e-4 0.001,-5.17e-4 0.23604,-0.09797 0.4792,-0.198928 0.72709,-0.300757 0.59511,-0.244461 1.09337,-0.44544 1.65003,-0.66921 1.94663,-0.782518 4.43985,-1.730914 6.86315,-2.414322 0.35704,-0.100298 0.70955,-0.197412 1.05781,-0.291456 2.94209,-0.794476 5.51053,-1.347687 7.65793,-1.636592 1.10522,-0.148691 2.07514,-0.224138 2.91662,-0.232027 0.81931,-0.0077 1.50072,0.04889 2.05982,0.157096 0.55177,0.106792 0.96854,0.26074 1.27899,0.440283 0.30662,0.177326 0.51086,0.379821 0.64648,0.594279 0.13796,0.218154 0.21933,0.471432 0.24649,0.763778 0.0282,0.302892 -0.002,0.642948 -0.0858,1.012341 -0.0863,0.384243 -0.22635,0.78686 -0.40153,1.193726 -0.18622,0.432523 -0.40992,0.864497 -0.64543,1.277441 -0.0447,0.07835 -0.0894,0.156133 -0.13488,0.233061 -0.45683,0.773992 -0.9793,1.540284 -1.5043,2.261361 -0.70534,0.968794 -3.26584,3.058785 -3.60702,3.508313 -0.34332,0.261682 -0.69871,0.546726 -1.03818,0.844909 -0.32743,0.287596 -0.64813,0.593927 -0.93017,0.906405 -0.27173,0.30107 -0.52261,0.624544 -0.70745,0.956531 -0.0914,0.164082 -0.17149,0.338299 -0.22841,0.519864 -0.0562,0.179201 -0.0927,0.374902 -0.0909,0.57981 0.0118,0.616848 0.11709,1.220635 0.32453,1.804541 0.19636,0.552685 0.47928,1.073965 0.84284,1.562695 0.6938,0.932674 1.65904,1.716681 2.8081,2.375566 1.12201,0.643367 2.40911,1.161912 3.76204,1.579749 1.38187,0.426774 2.82551,0.746529 4.21163,0.985469 3.2194,0.554967 6.18748,0.688322 7.78144,0.692981 h 0.0589 c 0.63752,7.11e-4 1.18767,-0.02146 1.64641,-0.05581 -0.19362,0.119038 -0.37406,0.236452 -0.5395,0.34985 -0.17821,0.122158 -0.34061,0.241011 -0.48318,0.3545 -0.14181,0.11289 -0.26848,0.223545 -0.37362,0.329696 -0.18799,0.189863 -0.36394,0.390506 -0.5147,0.603064 -0.15108,0.212989 -0.28,0.442429 -0.36948,0.689363 -0.0902,0.249076 -0.1392,0.513742 -0.13178,0.7922 0.007,0.279666 0.0717,0.560062 0.19379,0.840259 0.122,0.280061 0.2999,0.556375 0.53227,0.830957 0.2337,0.276138 0.5254,0.554373 0.87695,0.836641 0.71023,0.570239 1.68272,1.171268 2.95796,1.81591 0.0165,0.0084 0.0331,0.01694 0.0496,0.02532 -0.0211,0.105958 -0.0434,0.234315 -0.0672,0.390157 -0.11883,0.77944 -0.23481,2.014224 -0.3266,3.318143 0.004,-0.05133 -0.0537,0.768905 -0.0537,0.768946 -0.0295,0.476289 0.0158,0.940169 0.11007,1.383895 0.0986,0.46428 0.25629,0.932201 0.46509,1.405599 0.0165,0.03744 0.0334,0.07536 0.0506,0.113171 -0.0513,0.681489 -0.0876,1.521373 -0.0522,2.454631 0.0519,1.367241 0.25173,2.801356 0.68264,4.244185 0.41235,1.380638 0.99442,2.626977 1.69912,3.71967 0.46843,0.726336 1.01419,1.42588 1.63608,2.092378 1.45372,1.557979 3.24184,2.848284 5.25652,3.885034 1.9699,1.01371 4.0566,1.73443 6.10041,2.251543 2.04958,0.518576 4.13974,0.853842 6.16706,0.987536 2.05936,0.135807 3.95288,0.05677 5.5547,-0.205155 0.68863,-0.112597 1.31589,-0.257706 1.87741,-0.430982 0.84416,-0.260498 1.6198,-0.615836 2.25102,-1.04128 0.54787,-0.369271 0.94168,-0.760312 1.20303,-1.142049 0.0599,-0.08749 0.11146,-0.172776 0.15606,-0.255282 0.13092,0.191949 0.22199,0.368241 0.28009,0.528134 0.20486,0.558607 0.45171,1.037818 0.74311,1.440222 0.29951,0.413608 0.64414,0.743299 1.03197,0.99012 0.39854,0.253651 0.825,0.408729 1.26194,0.485759 0.44746,0.07889 0.90028,0.07556 1.34411,0.01964 0.4593,-0.05786 0.92092,-0.173874 1.37252,-0.322978 0.47104,-0.155512 0.94463,-0.351714 1.40922,-0.568957 0.99074,-0.463273 2.02139,-1.060432 2.95537,-1.627291 0.22152,-0.135025 0.40883,-0.304525 0.56638,-0.486792 0.16382,-0.189497 0.30094,-0.399494 0.41651,-0.614433 0.24616,-0.457787 0.41614,-0.980667 0.53382,-1.491382 0.13419,-0.582268 0.20995,-1.188484 0.24649,-1.757515 0.006,-0.0985 0.0114,-0.19612 0.0155,-0.293006 0.0233,-0.546362 0.0135,-1.090978 -0.0212,-1.613338 -0.0973,-1.465599 -0.38539,-2.731925 -0.72347,-3.673161 -0.21856,-0.608463 -0.45653,-1.081112 -0.6873,-1.441772 -0.14244,-0.22262 -0.28039,-0.400579 -0.40927,-0.543636 -0.16381,-0.181827 -0.31166,-0.306877 -0.43357,-0.396875 h -5.2e-4 c 0.0953,0.118644 0.19644,0.277247 0.29714,0.488342 0.0791,0.165756 0.15822,0.364032 0.2341,0.60048 0.12254,0.381888 0.23771,0.866243 0.33021,1.465544 0.14259,0.923653 0.23356,2.154125 0.18345,3.520715 -0.0179,0.488757 -0.0541,0.991629 -0.11265,1.487765 -0.0104,0.0879 -0.0216,0.176445 -0.0336,0.2651 -0.0702,0.515812 -0.17047,1.043734 -0.31006,1.524971 -0.12483,0.430351 -0.27674,0.808802 -0.4532,1.100191 -0.0813,0.134215 -0.16308,0.242258 -0.24288,0.325045 -0.0765,0.07936 -0.14639,0.130724 -0.20671,0.162264 -0.93795,0.539393 -1.92181,1.085707 -2.83548,1.500167 -0.42631,0.193371 -0.84017,0.359316 -1.23507,0.486792 -0.37964,0.122539 -0.73499,0.207274 -1.06299,0.248047 -0.31628,0.03931 -0.59879,0.03706 -0.85007,-0.0062 -0.24087,-0.04145 -0.45984,-0.12132 -0.66146,-0.247014 -0.19686,-0.12271 -0.39537,-0.300307 -0.58756,-0.559655 -0.18926,-0.255393 -0.37383,-0.592827 -0.54209,-1.037146 -0.12251,-0.325443 -0.29733,-0.63552 -0.50694,-0.929143 -0.20781,-0.291099 -0.45459,-0.572366 -0.72916,-0.843359 -0.54092,-0.533855 -1.20959,-1.046657 -1.9513,-1.534273 -1.45848,-0.958848 -3.23695,-1.844913 -4.98368,-2.60966 -1.71343,-0.750177 -3.38366,-1.376993 -4.64106,-1.817977 -1.22994,-0.431355 -2.03863,-0.675616 -2.05723,-0.67076 -0.004,0.0093 -0.50108,-0.155263 -1.29088,-0.472839 -0.79896,-0.321258 -1.8747,-0.790577 -2.99465,-1.374077 -1.13038,-0.588947 -2.28198,-1.282212 -3.24063,-2.046387 -0.48246,-0.384581 -0.90769,-0.780405 -1.25522,-1.18339 -0.35086,-0.40683 -0.61451,-0.811154 -0.78083,-1.208712 -0.83506,-2.007264 -1.96912,-3.876856 -3.49953,-5.559867 -1.54496,-1.699007 -3.43332,-3.141109 -5.68182,-4.332552 -0.16341,-0.08659 -0.32946,-0.172208 -0.49816,-0.256832 -1.24162,-0.622727 -2.14812,-1.184735 -2.78433,-1.69292 -0.3133,-0.250262 -0.55523,-0.482982 -0.73846,-0.698665 -0.18198,-0.214226 -0.3024,-0.407699 -0.37775,-0.580327 -0.0743,-0.170279 -0.10597,-0.323079 -0.10956,-0.462504 -0.004,-0.13907 0.0205,-0.277177 0.0724,-0.419095 0.0522,-0.143042 0.13292,-0.291602 0.24391,-0.447002 0.11091,-0.155296 0.2488,-0.31297 0.4098,-0.474389 0.0693,-0.06942 0.16404,-0.152656 0.28525,-0.248564 0.12048,-0.09533 0.26285,-0.19984 0.4253,-0.310575 0.32533,-0.221791 0.72356,-0.465104 1.1746,-0.711585 0.9071,-0.495713 2.00671,-0.993374 3.12488,-1.353405 0.56154,-0.180805 1.12274,-0.325031 1.66346,-0.418063 0.54442,-0.09367 1.06024,-0.133912 1.53066,-0.110071 0.47388,0.02402 0.89038,0.112261 1.24127,0.267168 0.35015,0.154581 0.63993,0.377579 0.86558,0.681612 0.58046,0.78185 1.39689,1.859293 2.32544,3.05511 0.95375,1.22826 2.01183,2.563484 3.06286,3.844727 1.08591,1.323761 2.14817,2.570532 3.08663,3.595129 0.48239,0.526673 0.93184,0.993965 1.33584,1.384412 0.20546,0.198563 0.40001,0.377881 0.58239,0.535885 0.18425,0.159632 0.35839,0.29945 0.52038,0.415478 0.1849,0.132619 0.40031,0.247773 0.63252,0.34985 0.23648,0.103961 0.50027,0.198949 0.7829,0.286804 0.57596,0.179038 1.25752,0.337278 1.99264,0.485758 1.55873,0.314832 3.403,0.59942 5.27152,0.936377 1.40281,0.252977 2.78124,0.525911 4.13256,0.852145 0.62098,0.149914 1.23856,0.311771 1.84692,0.487825 1.99841,0.578319 3.8586,1.300504 5.4131,2.244824 1.35151,0.773157 2.41848,1.63473 3.23546,2.436544 0.80588,0.79092 1.34749,1.503273 1.64952,1.945618 -0.25108,-0.46859 -0.69616,-1.258032 -1.41697,-2.155941 -0.7306,-0.910106 -1.73691,-1.921958 -3.08664,-2.836519 -1.60663,-1.030732 -3.52316,-1.815889 -5.5547,-2.439645 -0.61947,-0.190201 -1.24705,-0.364684 -1.87688,-0.526066 -1.36968,-0.350956 -2.76447,-0.644527 -4.17391,-0.914673 -1.67523,-0.321087 -3.32366,-0.597033 -4.73821,-0.881083 0.0888,-0.144599 0.17615,-0.342291 0.21756,-0.593762 0.0296,-0.179579 0.0348,-0.385458 -0.003,-0.611849 -0.037,-0.221248 -0.11401,-0.454099 -0.24082,-0.691431 -0.25929,-0.485277 -0.69969,-0.93982 -1.31051,-1.34152 -0.0191,-0.01255 -0.0388,-0.02518 -0.0584,-0.03772 -0.30415,-0.194944 -0.60865,-0.338408 -0.91003,-0.423746 0.0228,-0.130547 0.0402,-0.277879 0.0496,-0.441834 0.004,-0.07347 0.007,-0.150051 0.007,-0.22841 0.004,-0.541005 -0.0665,-1.48801 -0.3576,-2.542997 -0.13869,-0.502573 -0.32834,-1.030663 -0.58498,-1.540474 -0.25699,-0.510539 -0.57666,-0.993428 -0.971,-1.413868 -0.42688,-0.45512 -0.91575,-0.809804 -1.45882,-1.054716 -0.66652,-0.300582 -1.33757,-0.401239 -1.94149,-0.394808 -0.71703,0.01192 -1.04029,0.03563 -1.45469,0.06718 -0.3651,0.0278 -0.74521,0.05698 -1.21388,0.03617 -0.70814,-0.03145 -1.44494,-0.135065 -2.05207,-0.289904 -0.10131,-0.02584 -0.19473,-0.05168 -0.2806,-0.07752 -0.63709,-0.829405 -1.19459,-1.567814 -1.62264,-2.143022 -0.34256,-0.460396 -0.78169,-0.791493 -1.28313,-1.011824 -0.49386,-0.216993 -1.0413,-0.323684 -1.6092,-0.3514 -0.56433,-0.02754 -1.15861,0.02274 -1.75855,0.127124 -0.59732,0.10393 -1.20605,0.262513 -1.80402,0.456303 -1.00596,0.326013 -1.99004,0.753827 -2.84686,1.195276 -0.5412,-0.113758 -1.43812,-0.230281 -2.76521,-0.362252 -0.001,-7.5e-5 -0.0566,-0.0056 -0.0574,-0.0057 -1.47474,-0.146361 -4.55834,-0.424561 -7.5799,-1.012342 -1.34017,-0.260703 -2.71628,-0.589023 -4.01939,-1.008207 -1.27879,-0.411363 -2.45322,-0.899042 -3.44992,-1.476396 -1.02171,-0.59184 -1.80661,-1.248814 -2.34559,-1.967838 -0.28058,-0.374328 -0.49208,-0.761816 -0.6382,-1.16272 -0.15417,-0.423008 -0.23735,-0.864753 -0.25167,-1.327567 -0.004,-0.02519 -0.005,-0.07254 0.0103,-0.146762 0.0145,-0.07485 0.0425,-0.167193 0.0879,-0.276985 0.0934,-0.226343 0.24507,-0.491462 0.44596,-0.783415 0.20498,-0.297901 0.45151,-0.609792 0.71727,-0.920874 0.27417,-0.320912 0.56794,-0.639854 0.85732,-0.939994 0.17927,-0.185942 0.35781,-0.365821 0.5302,-0.535885 0.38228,-0.377111 0.78529,-0.768363 1.09244,-1.076937 0.28236,-0.283667 0.4629,-0.477088 0.56482,-0.609782 0.0325,-0.04231 0.0549,-0.07578 0.0698,-0.102319 0.41797,-0.477233 0.8753,-1.009923 1.26866,-1.446423 0.60535,-0.671731 1.21881,-1.427458 1.74511,-2.205034 0.0528,-0.07799 0.10495,-0.15709 0.1571,-0.237194 0.27395,-0.420827 0.54045,-0.874708 0.76843,-1.342554 0.21368,-0.438489 0.39825,-0.89866 0.52193,-1.361157 0.11843,-0.44288 0.18467,-0.900611 0.15916,-1.351856 -0.025,-0.442956 -0.13879,-0.881477 -0.37775,-1.285193 -0.23676,-0.400009 -0.58178,-0.740552 -1.03456,-1.012858 -0.44987,-0.270551 -0.99972,-0.470155 -1.64848,-0.601513 -0.65793,-0.133214 -1.42401,-0.197788 -2.3027,-0.19327 z m 28.98686,27.242264 c 0.50624,0.197722 1.05642,0.349259 1.61695,0.485242 0.48688,0.118116 0.85634,0.217449 1.2454,0.306441 0.37154,0.08499 0.82173,0.17146 1.51774,0.212391 0.44317,0.02952 0.88754,0.121741 1.31568,0.325044 0.3468,0.164676 0.6719,0.39677 0.97514,0.709518 0.2833,0.292169 0.53542,0.642688 0.75964,1.04283 0.22418,0.400068 0.40838,0.828176 0.56224,1.256771 0.31026,0.864179 0.50738,1.780443 0.6196,2.236556 0.0174,0.07062 0.0353,0.139408 0.0532,0.205672 0.0262,0.09724 0.052,0.187856 0.078,0.271818 -0.0259,0.0042 -0.0515,0.0087 -0.077,0.01395 -0.27792,0.057 -0.51133,0.173461 -0.70177,0.318843 -0.19424,0.148296 -0.34021,0.323932 -0.44958,0.494027 -0.11768,0.182999 -0.19853,0.368094 -0.25425,0.528133 -0.0226,0.06502 -0.0417,0.127867 -0.0579,0.187069 -0.31184,-0.315799 -0.65214,-0.676892 -1.01544,-1.07642 -0.91775,-1.009255 -1.96426,-2.242831 -3.04219,-3.560506 -1.04238,-1.274204 -2.09378,-2.601933 -3.04322,-3.82509 -0.0343,-0.04424 -0.0683,-0.08839 -0.10232,-0.132292 z m -10.12187,5.826001 c 0.021,0.01113 0.0422,0.02243 0.0631,0.03359 2.14953,1.148565 3.92569,2.534587 5.35781,4.149618 1.41769,1.598774 2.45563,3.373375 3.20756,5.280814 0.21631,0.546231 0.54823,1.063018 0.95188,1.547709 0.4007,0.481117 0.87795,0.937777 1.39836,1.366325 0.68757,0.566202 1.45829,1.090446 2.24017,1.563729 -0.0906,0.01752 -0.18065,0.03868 -0.26923,0.06408 -0.39707,0.113842 -0.76112,0.303095 -1.0759,0.54932 -0.33979,0.265786 -0.60926,0.588029 -0.81029,0.938961 -0.003,0.005 -0.005,0.01002 -0.008,0.01499 -0.22108,0.390367 -0.35138,0.799087 -0.40462,1.200444 -0.0288,0.217198 -0.0354,0.433768 -0.0207,0.646472 -0.82148,-0.557841 -1.5294,-1.164274 -2.10479,-1.81901 -1.12389,-1.283051 -2.26933,-2.518158 -3.17448,-3.505213 -1.1544,-1.25887 -1.95162,-2.151228 -2.62206,-2.985864 -0.84224,-1.048525 -1.39297,-1.857933 -1.76785,-2.550749 -0.21219,-0.392164 -0.3782,-0.76698 -0.49558,-1.128613 -0.11192,-0.344845 -0.1865,-0.699148 -0.20412,-1.062468 -0.0101,-0.254929 -0.0204,-0.514522 -0.0305,-0.769462 -9e-5,-0.0023 9e-5,-0.0045 0,-0.0067 -0.001,-0.02533 -0.002,-0.0513 -0.003,-0.07648 -0.11782,-2.981441 -0.069,-1.742386 -0.004,-0.08682 -0.0501,-1.233976 -0.11836,-2.414435 -0.19895,-3.153813 -0.008,-0.07664 -0.0166,-0.146719 -0.0248,-0.21084 z m 18.81694,2.265495 c 0.0318,-0.0012 0.0635,-6.94e-4 0.0961,0.001 0.12985,0.0069 0.28183,0.03727 0.46044,0.104386 0.19072,0.07167 0.41177,0.184995 0.67024,0.357084 0.0161,0.0107 0.0324,0.02149 0.0481,0.03204 0.50435,0.340829 0.82089,0.646399 1.02319,0.918807 0.0977,0.131584 0.1677,0.254127 0.21808,0.366386 0.0519,0.115582 0.0854,0.225052 0.10645,0.328662 0.0375,0.184834 0.0356,0.356863 0.0279,0.488859 -0.67052,-0.144304 -1.26879,-0.292589 -1.76475,-0.452169 -0.25741,-0.08282 -0.48324,-0.166979 -0.6749,-0.253731 -0.19008,-0.08604 -0.33805,-0.170572 -0.44803,-0.251665 -0.12928,-0.09504 -0.27743,-0.21612 -0.44442,-0.363285 -0.15322,-0.135017 -0.32013,-0.289886 -0.49919,-0.464054 0.0544,-0.0752 0.1205,-0.160215 0.19482,-0.244947 0.096,-0.109464 0.20832,-0.221361 0.33486,-0.316259 0.11837,-0.08878 0.24203,-0.157198 0.37052,-0.199988 0.0923,-0.03074 0.18513,-0.04767 0.2806,-0.05116 z m 7.66052,6.800102 c -0.38036,0.02461 -0.44876,0.08327 -0.45527,0.124023 -0.007,0.04243 0.0403,0.115351 0.38705,0.267168 0.33756,0.147803 0.87747,0.335288 1.36995,0.507462 0.74276,0.259668 1.39206,0.5532 2.29236,0.821139 0.94871,0.282347 2.3284,0.678641 3.28972,0.910022 l 0.003,10e-4 c 0.42841,0.103045 1.05563,0.216846 1.47691,0.302307 0.61679,0.125134 0.99273,0.225711 1.21233,0.320394 -0.11949,-0.205187 -0.33489,-0.561346 -0.8568,-1.018542 -0.39452,-0.34559 -0.88215,-0.672124 -1.35547,-0.905888 l -0.003,-0.0016 c -1.04063,-0.513299 -2.32315,-0.855056 -3.41012,-1.066602 -0.90701,-0.17653 -1.70492,-0.187584 -2.47479,-0.234094 -0.54191,-0.03274 -1.09186,-0.05174 -1.47639,-0.02687 z m -12.63282,6.019788 c 0.0626,-0.0011 0.12522,8e-4 0.1881,0.0057 0.25644,0.01992 0.50877,0.08959 0.74724,0.208256 0.25667,0.127727 0.46487,0.294147 0.63149,0.473873 0.1869,0.201598 0.32048,0.417774 0.42064,0.6196 0.006,0.0129 0.0123,0.02575 0.0186,0.03876 0.12608,0.261648 0.21808,0.532833 0.26458,0.818554 0.0675,0.414549 0.0221,0.769839 -0.0439,0.98857 0.13791,-0.16243 0.39764,-0.465161 0.55036,-0.93896 0.10647,-0.330334 0.15033,-0.716141 0.0801,-1.119312 -0.003,-0.02007 -0.007,-0.03992 -0.0114,-0.05994 -0.0275,-0.136202 -0.0692,-0.280556 -0.12764,-0.427881 0.32924,0.150916 0.63484,0.285839 0.90847,0.403593 0.81821,0.352109 1.3471,0.550216 1.3534,0.563273 a 0.01748024,0.01522925 59.521766 0 0 0.0238,0.0083 c -0.0102,0.0076 0.7883,0.269084 1.99419,0.712101 1.22966,0.451748 2.85502,1.081293 4.51755,1.827796 1.7033,0.764806 3.38799,1.62659 4.72891,2.52491 0.44827,0.300307 0.84903,0.598928 1.19528,0.892969 -1.06846,-0.150706 -2.54792,-0.377114 -4.35994,-0.596346 -1.94816,-0.235718 -5.04729,-0.58432 -8.33283,-1.405599 -1.18336,-0.29581 -2.36919,-0.647798 -3.51038,-1.065568 0.0494,-0.02302 0.0986,-0.04672 0.14728,-0.07131 0.54277,-0.274407 0.98999,-0.622973 1.3038,-1.016992 0.18411,-0.231174 0.30993,-0.461674 0.3917,-0.682646 0.11097,-0.29983 0.13462,-0.563501 0.1354,-0.761193 l -0.001,-5.17e-4 c -0.0456,0.196213 -0.13634,0.431332 -0.31161,0.667143 -0.12773,0.171864 -0.29263,0.334062 -0.50022,0.481107 -0.3517,0.249149 -0.80083,0.43612 -1.30173,0.548287 -0.46654,0.104473 -0.93285,0.133359 -1.31413,0.102836 -0.18884,-0.01511 -0.34272,-0.04455 -0.46096,-0.07958 -0.0632,-0.02929 -0.13156,-0.0529 -0.1943,-0.08268 -0.009,-0.0072 -0.015,-0.0138 -0.016,-0.01757 v -5.17e-4 c -0.21257,-0.142103 -0.39109,-0.309744 -0.53485,-0.490926 -0.14393,-0.18139 -0.26077,-0.3868 -0.33952,-0.610298 -0.0764,-0.216929 -0.11853,-0.455432 -0.10852,-0.703317 0.01,-0.235145 0.0661,-0.483868 0.18966,-0.72657 0.002,-0.0031 0.003,-0.0058 0.005,-0.0088 0.11239,-0.217858 0.2698,-0.417425 0.47181,-0.58291 0.18762,-0.153703 0.40811,-0.273171 0.65112,-0.348299 0.17714,-0.05476 0.36269,-0.0846 0.55036,-0.08785 z m -1.09968,1.074353 c 0.0625,0.102275 0.23519,0.399042 0.37466,0.613399 0.15962,0.245339 0.29309,0.62108 0.53588,0.77463 0.2399,0.151737 0.61912,0.137524 0.90796,0.148828 0.26139,0.01023 0.62525,-0.05301 0.75034,-0.06356 -0.054,-0.113308 -0.18322,-0.459078 -0.32401,-0.679545 -0.15556,-0.243628 -0.33445,-0.577994 -0.58653,-0.708484 -0.25512,-0.132072 -0.64712,-0.0579 -0.93948,-0.07183 -0.25545,-0.01217 -0.59901,-0.01114 -0.71882,-0.01344 z" />
  </g>
</svg>
